<?xml version="1.0" encoding="iso-8859-1"?>
<!-- Generator: Adobe Illustrator 26.0.0, SVG Export Plug-In . SVG Version: 6.00 Build 0)  -->
<svg version="1.1" id="Layer_1" xmlns="http://www.w3.org/2000/svg" xmlns:xlink="http://www.w3.org/1999/xlink" x="0px" y="0px"
	 viewBox="0 0 64 64" style="enable-background:new 0 0 64 64;" xml:space="preserve">
<path style="fill:#FCBA03;" d="M56.667,64H7.333C3.283,64,0,60.717,0,56.667V7.333C0,3.283,3.283,0,7.333,0h49.333
	C60.717,0,64,3.283,64,7.333v49.333C64,60.717,60.717,64,56.667,64z"/>
<g>
	<path style="fill:#FFFFFF;" d="M27.446,51.875c-1.811,0-3.35-0.633-4.614-1.898c-1.265-1.265-1.924-2.83-1.978-4.694v-0.04
		c0-1.252,0.266-2.303,0.799-3.156c0.532-0.852,1.145-1.551,1.838-2.097c0.692-0.546,1.571-1.072,2.637-1.578
		c-0.746,0.959-1.312,1.898-1.698,2.816c-0.386,0.919-0.579,2.017-0.579,3.296l0.04,0.759c0.106,1.039,0.493,1.911,1.159,2.617
		c0.665,0.705,1.491,1.059,2.477,1.059c1.012,0,1.878-0.36,2.597-1.079c0.719-0.719,1.079-1.585,1.079-2.597V17.119l2.836-1.997
		h-5.193c-3.143,0-5.713,0.493-7.71,1.478c-1.997,0.986-3.116,2.677-3.356,5.074l-0.04,0.639c0,1.625,0.446,3.023,1.338,4.195
		c0.892,1.172,2.004,2.157,3.336,2.956c-1.305-0.08-2.551-0.419-3.735-1.019c-1.185-0.599-2.171-1.471-2.956-2.617
		c-0.786-1.145-1.179-2.557-1.179-4.235c0-1.811,0.506-3.429,1.518-4.854c1.012-1.424,2.57-2.55,4.674-3.376
		c2.104-0.825,4.794-1.238,8.07-1.238h20.654l-1.997,2.996H34.237v22.771l-0.04,7.231c0,1.864-0.653,3.456-1.958,4.774
		C30.935,51.216,29.337,51.875,27.446,51.875z M25.448,33.099l-1.678-1.718l1.678-1.678l1.718,1.678L25.448,33.099z"/>
</g>
</svg>
