<?xml version="1.0" encoding="iso-8859-1"?>
<!-- Generator: Adobe Illustrator 26.0.0, SVG Export Plug-In . SVG Version: 6.00 Build 0)  -->
<svg version="1.1" xmlns="http://www.w3.org/2000/svg" xmlns:xlink="http://www.w3.org/1999/xlink" x="0px" y="0px"
	 viewBox="0 0 1697.915 181.111" style="enable-background:new 0 0 1697.915 181.111;" xml:space="preserve">
<g id="Layer_1">
	
		<image style="display:none;overflow:visible;" width="300" height="32" xlink:href="../Downloads/Logo.png"  transform="matrix(5.6597 0 0 5.6597 0 0)">
	</image>
	<g>
		<path d="M229.444,41.939h75.98v12.314l-53.972,64.059h54.627v15.327h-78.338v-12.445l53.972-63.928h-52.4L229.444,41.939z"/>
		<path d="M343.937,112.941c4.104,4.106,9.606,6.157,16.506,6.157c6.898,0,12.334-2.051,16.31-6.157
			c3.973-4.104,5.96-9.78,5.96-17.03V41.939h17.554v53.972c0,7.948-1.617,14.869-4.847,20.764
			c-3.232,5.895-7.839,10.415-13.82,13.559c-5.983,3.144-13.035,4.716-21.157,4.716c-8.21,0-15.349-1.572-21.418-4.716
			c-6.071-3.144-10.721-7.664-13.951-13.559c-3.232-5.895-4.847-12.815-4.847-20.764V41.939h17.554v53.972
			C337.781,103.162,339.831,108.838,343.937,112.941z"/>
		<path d="M484.827,48.097c5.633,4.106,8.45,9.694,8.45,16.768c0,5.066-1.421,9.412-4.258,13.034
			c-2.839,3.625-6.746,6.049-11.724,7.271c6.112,1.136,10.893,3.756,14.344,7.86c3.449,4.106,5.175,9.215,5.175,15.327
			c0,7.86-3.036,14.04-9.104,18.537c-6.071,4.499-14.345,6.747-24.825,6.747h-41.92v-91.7h40.741
			C471.486,41.939,479.195,43.993,484.827,48.097z M471.466,76.393c2.575-2.008,3.864-4.802,3.864-8.384
			c0-3.492-1.29-6.2-3.864-8.122c-2.577-1.92-6.137-2.837-10.677-2.751h-22.27v22.27h22.27
			C465.329,79.406,468.888,78.403,471.466,76.393z M473.889,115.3c3.144-2.182,4.716-5.24,4.716-9.17
			c0-3.754-1.572-6.702-4.716-8.843c-3.144-2.139-7.512-3.165-13.1-3.079h-22.27v24.235h22.27
			C466.377,118.532,470.745,117.484,473.889,115.3z"/>
		<path d="M581.702,133.64l-8.122-19.388h-44.802l-8.122,19.388h-18.209l40.217-91.7h18.209l39.693,91.7H581.702z M535.066,99.187
			h32.226L551.31,60.673L535.066,99.187z"/>
		<path d="M611.701,41.939h17.554v91.7h-17.554V41.939z"/>
		<path d="M709.164,133.64l-15.851-27.117c-0.7,0.088-1.791,0.131-3.275,0.131H669.34v26.986h-17.554v-91.7h38.252
			c11.876,0,21.046,2.751,27.51,8.253c6.462,5.502,9.694,13.276,9.694,23.318c0,7.162-1.552,13.276-4.651,18.34
			c-3.101,5.066-7.62,8.865-13.558,11.397l20.174,30.392H709.164z M669.34,91.196h20.698c6.636,0,11.702-1.441,15.196-4.323
			c3.492-2.882,5.24-7.16,5.24-12.838c0-5.588-1.748-9.78-5.24-12.576c-3.494-2.794-8.56-4.192-15.196-4.192H669.34V91.196z"/>
		<path d="M778.593,41.939h67.203v15.327h-49.649V79.93h44.542v15.327h-44.542v23.056h51.221v15.327h-68.775V41.939z"/>
		<path d="M929.112,41.939h17.029v91.7h-16.637l-47.16-63.142v63.142h-17.161v-91.7h16.638l47.291,63.273V41.939z"/>
		<path d="M958.454,41.939h74.801v15.589h-28.558v76.111h-17.685V57.529h-28.559V41.939z"/>
		<path d="M1045.699,41.939h67.203v15.327h-49.648V79.93h44.54v15.327h-44.54v23.056h51.221v15.327h-68.775V41.939z"/>
		<path d="M1189.668,133.64l-15.851-27.117c-0.7,0.088-1.791,0.131-3.275,0.131h-20.697v26.986h-17.555v-91.7h38.252
			c11.876,0,21.047,2.751,27.511,8.253c6.462,5.502,9.693,13.276,9.693,23.318c0,7.162-1.551,13.276-4.65,18.34
			c-3.101,5.066-7.62,8.865-13.559,11.397l20.174,30.392H1189.668z M1149.845,91.196h20.697c6.637,0,11.702-1.441,15.196-4.323
			c3.492-2.882,5.24-7.16,5.24-12.838c0-5.588-1.748-9.78-5.24-12.576c-3.494-2.794-8.56-4.192-15.196-4.192h-20.697V91.196z"/>
		<path d="M1291.389,50.193c6.331,5.502,9.498,13.276,9.498,23.318c0,10.48-3.167,18.625-9.498,24.432
			c-6.333,5.809-15.262,8.711-26.789,8.711h-20.043v26.986h-17.555v-91.7h37.598C1276.127,41.939,1285.056,44.69,1291.389,50.193z
			 M1278.944,86.873c3.537-2.882,5.306-7.16,5.306-12.838c0-5.588-1.769-9.78-5.306-12.576c-3.536-2.794-8.625-4.192-15.261-4.192
			h-19.126v33.929h19.126C1270.319,91.196,1275.407,89.755,1278.944,86.873z"/>
		<path d="M1372.804,133.64l-15.851-27.117c-0.7,0.088-1.791,0.131-3.275,0.131h-20.697v26.986h-17.555v-91.7h38.252
			c11.876,0,21.047,2.751,27.511,8.253c6.462,5.502,9.693,13.276,9.693,23.318c0,7.162-1.551,13.276-4.65,18.34
			c-3.101,5.066-7.62,8.865-13.559,11.397l20.174,30.392H1372.804z M1332.981,91.196h20.697c6.637,0,11.702-1.441,15.196-4.323
			c3.492-2.882,5.24-7.16,5.24-12.838c0-5.588-1.748-9.78-5.24-12.576c-3.494-2.794-8.56-4.192-15.196-4.192h-20.697V91.196z"/>
		<path d="M1410.137,41.939h17.555v91.7h-17.555V41.939z"/>
		<path d="M1493.388,58.839c-4.936-1.572-9.28-2.358-13.034-2.358c-4.192,0-7.513,0.786-9.956,2.358
			c-2.446,1.572-3.668,3.756-3.668,6.55c0,2.534,0.851,4.65,2.554,6.354s3.843,3.101,6.419,4.192
			c2.575,1.093,6.092,2.292,10.546,3.603c6.2,1.834,11.286,3.668,15.262,5.502c3.973,1.834,7.356,4.542,10.152,8.122
			c2.794,3.582,4.192,8.298,4.192,14.148c0,5.59-1.507,10.459-4.52,14.606c-3.014,4.149-7.162,7.315-12.445,9.498
			c-5.285,2.184-11.332,3.275-18.144,3.275c-7.162,0-14.148-1.33-20.96-3.995c-6.812-2.663-12.752-6.223-17.816-10.677l7.336-14.934
			c4.628,4.28,9.825,7.643,15.59,10.087c5.764,2.446,11.135,3.668,16.112,3.668c4.891,0,8.732-0.937,11.528-2.816
			c2.794-1.877,4.192-4.431,4.192-7.664c0-2.62-0.852-4.781-2.555-6.484s-3.865-3.079-6.484-4.126
			c-2.62-1.048-6.202-2.227-10.742-3.537c-6.202-1.834-11.267-3.623-15.196-5.371c-3.93-1.746-7.293-4.389-10.087-7.926
			c-2.796-3.537-4.192-8.188-4.192-13.952c0-5.326,1.419-9.976,4.258-13.951c2.837-3.973,6.855-7.052,12.052-9.236
			c5.195-2.182,11.201-3.275,18.013-3.275c5.938,0,11.811,0.874,17.619,2.62c5.808,1.748,10.981,4.106,15.524,7.074l-7.074,15.327
			C1503.148,62.638,1498.321,60.411,1493.388,58.839z"/>
		<path d="M1532.49,41.939h67.203v15.327h-49.648V79.93h44.54v15.327h-44.54v23.056h51.221v15.327h-68.775V41.939z"/>
		<path d="M1662.245,58.839c-4.936-1.572-9.28-2.358-13.034-2.358c-4.192,0-7.513,0.786-9.956,2.358
			c-2.446,1.572-3.668,3.756-3.668,6.55c0,2.534,0.851,4.65,2.554,6.354s3.843,3.101,6.419,4.192
			c2.575,1.093,6.092,2.292,10.546,3.603c6.2,1.834,11.286,3.668,15.262,5.502c3.973,1.834,7.356,4.542,10.152,8.122
			c2.794,3.582,4.192,8.298,4.192,14.148c0,5.59-1.507,10.459-4.52,14.606c-3.014,4.149-7.162,7.315-12.445,9.498
			c-5.285,2.184-11.332,3.275-18.144,3.275c-7.162,0-14.148-1.33-20.96-3.995c-6.812-2.663-12.752-6.223-17.816-10.677l7.336-14.934
			c4.628,4.28,9.825,7.643,15.59,10.087c5.764,2.446,11.135,3.668,16.112,3.668c4.891,0,8.732-0.937,11.528-2.816
			c2.794-1.877,4.192-4.431,4.192-7.664c0-2.62-0.852-4.781-2.555-6.484s-3.865-3.079-6.484-4.126
			c-2.62-1.048-6.202-2.227-10.742-3.537c-6.202-1.834-11.267-3.623-15.196-5.371c-3.93-1.746-7.293-4.389-10.087-7.926
			c-2.796-3.537-4.192-8.188-4.192-13.952c0-5.326,1.419-9.976,4.258-13.951c2.837-3.973,6.855-7.052,12.052-9.236
			c5.195-2.182,11.201-3.275,18.013-3.275c5.938,0,11.811,0.874,17.619,2.62c5.808,1.748,10.981,4.106,15.524,7.074l-7.074,15.327
			C1672.005,62.638,1667.178,60.411,1662.245,58.839z"/>
	</g>
	<path style="fill:#FCBA03;" d="M67.319,50.896h-56.17c-3.173,0-5.745-2.572-5.745-5.745v0c0-3.173,2.572-5.745,5.745-5.745h56.17
		c3.173,0,5.745,2.572,5.745,5.745v0C73.064,48.324,70.492,50.896,67.319,50.896z"/>
	<path style="fill:#FCBA03;" d="M85.957,134.949H32.085c-3.173,0-5.745-2.572-5.745-5.745l0,0c0-3.173,2.572-5.745,5.745-5.745
		h53.872c3.173,0,5.745,2.572,5.745,5.745l0,0C91.702,132.377,89.13,134.949,85.957,134.949z"/>
	<path style="fill:#FCBA03;" d="M163.319,134.949h-55.404c-3.173,0-5.745-2.572-5.745-5.745l0,0c0-3.173,2.572-5.745,5.745-5.745
		h55.404c3.173,0,5.745,2.572,5.745,5.745l0,0C169.064,132.377,166.492,134.949,163.319,134.949z"/>
	<path style="fill:#FCBA03;" d="M163.319,50.896h-55.404c-3.173,0-5.745-2.572-5.745-5.745v0c0-3.173,2.572-5.745,5.745-5.745
		h55.404c3.173,0,5.745,2.572,5.745,5.745v0C169.064,48.324,166.492,50.896,163.319,50.896z"/>
	<path style="fill:#FCBA03;" d="M102.17,129.204V45.407c0-3.173,2.572-5.745,5.745-5.745h0c3.173,0,5.745,2.572,5.745,5.745v83.798
		c0,3.173-2.572,5.745-5.745,5.745h0C104.742,134.949,102.17,132.377,102.17,129.204z"/>
	<path style="fill:#FCBA03;" d="M28.159,124.645L84.49,42.519c1.795-2.616,5.37-3.283,7.987-1.488l0,0
		c2.616,1.795,3.283,5.37,1.488,7.987l-56.332,82.126c-1.795,2.616-5.37,3.283-7.987,1.488h0
		C27.03,130.837,26.364,127.261,28.159,124.645z"/>
	<path style="fill:#FCBA03;" d="M6.331,124.029l56.332-82.126c1.795-2.616,5.37-3.283,7.987-1.488l0,0
		c2.616,1.795,3.283,5.37,1.488,7.987l-56.332,82.126c-1.795,2.616-5.37,3.283-7.987,1.488h0
		C5.202,130.221,4.536,126.645,6.331,124.029z"/>
	<path style="fill:#FCBA03;" d="M155.66,84.598h-34.979c-3.173,0-5.745-2.572-5.745-5.745v0c0-3.173,2.572-5.745,5.745-5.745h34.979
		c3.173,0,5.745,2.572,5.745,5.745v0C161.404,82.026,158.832,84.598,155.66,84.598z"/>
	<path style="fill:#FCBA03;" d="M155.66,102.045h-34.979c-3.173,0-5.745-2.572-5.745-5.745v0c0-3.173,2.572-5.745,5.745-5.745
		h34.979c3.173,0,5.745,2.572,5.745,5.745v0C161.404,99.473,158.832,102.045,155.66,102.045z"/>
</g>
<g id="Layer_1_copy" style="display:none;">
	<g style="display:inline;">
		<g>
			<path style="fill:#FEFEFE;" d="M846.139,585.082c-275.288,0-550.577-0.186-825.864,0.454
				c-16.816,0.039-20.728-3.211-20.235-19.581c1.423-47.285,1.423-94.663,0-141.948c-0.493-16.37,3.419-19.621,20.235-19.581
				c271.529,0.643,543.059,0.455,814.589,0.455c280.926,0,561.852,0.182,842.776-0.454c16.816-0.038,20.727,3.211,20.235,19.581
				c-1.423,47.285-1.423,94.663,0,141.948c0.493,16.37-3.419,19.62-20.235,19.581
				C1400.474,584.897,1123.306,585.082,846.139,585.082z"/>
			<path style="fill:#090909;" d="M420.301,494.059c-0.006-1.818-0.006-3.636-0.006-5.454c0.001-39.526,13.185-49.044,53.482-38.342
				c10.488,2.785,24.778,12.837,20.567,18.533c-16.691,22.578,24.581,50.89-7.987,68.457c-18.519,9.989-40.409,4.07-60.743,3.067
				c-7.149-0.353-5.074-8.502-5.213-13.541C420.098,515.88,420.308,504.967,420.301,494.059z"/>
			<path style="fill:#0B0B0B;" d="M1212.653,538.902c-12.798,5.078-22.059,3.751-28.526-8.203
				c-3.454-6.384-7.889-12.353-12.488-18.048c-4.012-4.969-8.725-10.427-16.199-8.78c-9.69,2.135-3.906,10.409-5.682,15.748
				c-2.466,7.412,6.83,20.872-8.655,21.364c-17.977,0.571-9.022-14.31-10.226-22.43c-1.45-9.779-1.288-20.02-0.109-29.869
				c1.539-12.849-7.942-31.981,5.974-37.204c16.387-6.151,37.057-5.458,54.989,1.41c16.312,6.248,22.544,24.721,12.13,32.66
				c-25.063,19.107-3.994,29.797,3.293,43.61C1208.8,532.279,1210.621,535.312,1212.653,538.902z"/>
			<path style="fill:#050505;" d="M730.557,538.92c-22.042,8.313-27.221-6.646-34.898-17.395
				c-5.812-8.138-10.937-19.685-22.604-17.279c-13.098,2.701-4.436,15.046-6.041,22.91c-1.387,6.796,1.596,15.05-10.679,14.343
				c-10.417-0.6-8.332-7.734-8.439-13.613c-0.23-12.666-0.078-25.338-0.078-38.008c-0.001-40.599,15.735-51.309,56.936-38.754
				c17.661,5.382,28.256,27.74,14.916,37.758c-18.578,13.953-8.47,22.034-0.095,33.09
				C723.372,526.985,726.441,532.512,730.557,538.92z"/>
			<path style="fill:#050505;" d="M1395.271,539.131c-21.88,8.032-26.801-7.23-34.592-17.83
				c-5.882-8.004-10.734-19.858-22.598-17.099c-12.729,2.96-4.447,15.207-5.85,23.158c-1.242,7.038,1.166,14.991-10.933,14.109
				c-10.431-0.76-8.057-8.045-8.185-13.833c-0.279-12.675-0.913-25.424,0.133-38.023c1.087-13.089-7.543-32.651,4.85-37.834
				c15.953-6.671,36.802-5.489,54.752,0.673c19.997,6.865,23.823,26.512,11.583,36.458c-18.565,15.085-6.959,22.265,0.955,33.102
				C1389.084,527.075,1391.708,532.872,1395.271,539.131z"/>
			<path style="fill:#0E0E0E;" d="M779.204,496.631c0-0.909,0-1.818,0-2.727c0-45.663,11.565-54.212,59.267-44.793
				c6.598,1.303,10.563,3.254,10.263,9.897c-0.296,6.562-5.944,5.867-10.323,5.991c-9.375,0.266-18.765,0.022-28.146,0.148
				c-5.574,0.075-11.631-0.432-11.559,7.842c0.061,7.075,1.568,12.643,10.556,12.615c8.444-0.026,16.888,0.045,25.332,0.114
				c5.686,0.047,11.503-0.092,11.557,7.851c0.05,7.282-4.453,9.021-10.907,8.923c-8.442-0.128-16.896,0.225-25.331-0.034
				c-8.402-0.257-11.442,3.369-11.395,11.405c0.045,7.634,1.993,12.122,10.885,11.887c10.312-0.273,20.641-0.081,30.961,0.053
				c6.409,0.083,10.851,2.479,10.338,9.602c-0.474,6.595-5.993,5.694-10.297,6.031c-4.662,0.365-9.376,0.082-14.068,0.116
				C779.204,541.897,779.204,541.899,779.204,496.631z"/>
			<path style="fill:#020202;" d="M925.07,503.552c0-14.455-0.1-28.912,0.051-43.365c0.057-5.534,0.503-10.933,8.74-10.715
				c8.381,0.222,7.998,6.075,8.041,11.301c0.178,21.75,0.383,43.509-0.113,65.249c-0.121,5.327,4.179,13.619-6.113,15.129
				c-7.656,1.123-13.928-0.006-18.488-8.109c-8.246-14.655-18.062-28.48-31.565-49.371c0,19.915,0.143,32.145-0.062,44.369
				c-0.099,5.897,2.039,13.148-8.52,13.421c-10.429,0.27-9.284-6.563-9.299-12.838c-0.052-21.751-0.166-43.505,0.094-65.253
				c0.059-4.928-1.951-11.382,5.636-13.399c7.2-1.915,13.028,0.701,16.821,6.625c10.203,15.937,20.106,32.055,30.128,48.1
				C921.97,504.314,923.52,503.933,925.07,503.552z"/>
			<path style="fill:#080808;" d="M1479.913,542.319c-15.066,0.996-28.43-1.694-35.472-16.141
				c-2.103-4.314-6.349-10.461,0.938-14.039c4.7-2.307,11.14-4.288,14.389,2.379c3.009,6.174,6.852,10.569,14.095,11.683
				c8.775,1.35,17.863,1.536,21.204-8.001c3.392-9.68-5.488-11.942-12.499-14.318c-3.5-1.186-7.398-1.264-10.902-2.443
				c-13.414-4.513-26.901-8.977-28.071-26.071c-0.798-11.66,5.358-19.106,15.556-23.285c15.561-6.377,31.157-6.093,44.929,4.303
				c5.618,4.241,12.15,10.942,5.616,17.836c-4.309,4.547-12.247,4.397-16.839-2.403c-4.061-6.014-9.813-7.958-16.814-7.545
				c-5.882,0.347-12.147,1.711-13.098,7.865c-0.682,4.412,3.721,7.724,8.635,9.121c5.362,1.524,10.541,3.776,15.979,4.907
				c18.834,3.918,31.801,13.628,28.131,33.553C1512.349,537.865,1497.576,543.523,1479.913,542.319z"/>
			<path style="fill:#080808;" d="M1653.917,542.316c-14.174,0.873-26.282-2.66-33.666-15.193
				c-2.679-4.547-5.821-10.379,0.336-14.391c4.639-3.023,10.657-4.344,14.372,1.986c2.852,4.858,5.905,9.271,11.797,10.823
				c9.562,2.52,20.33,3.471,24.104-6.913c3.857-10.613-6.591-12.981-14.773-15.193c-2.701-0.731-5.499-1.141-8.178-1.932
				c-13.854-4.09-27.28-9.229-28.92-25.635c-1.245-12.459,6.194-20.917,17.769-24.747c15.795-5.225,31.492-4.756,44.697,6.752
				c4.73,4.122,9.748,10.741,4.672,16.058c-3.912,4.098-12.393,5.804-17.089-1.081c-4.101-6.011-9.204-8.739-16.314-8.459
				c-5.629,0.222-12.227,0.15-13.987,6.503c-1.816,6.553,3.583,9.11,9.242,10.683c5.383,1.496,10.656,3.391,16.08,4.719
				c17.139,4.196,30.252,12.657,27.222,31.746C1688.11,538.027,1672.701,543.517,1653.917,542.316z"/>
			<path style="fill:#060606;" d="M1042.414,496.869c0-50.016,7.76-56.205,58.474-47.617c6.144,1.04,11.157,1.856,10.885,9.011
				c-0.314,8.276-7.141,6.503-12.247,6.667c-8.406,0.27-16.828,0.02-25.242,0.118c-6.554,0.076-13.19-0.5-13,9.331
				c0.156,8.084,3.851,10.197,11.604,11.726c11.689,2.304,33.32-7.927,33.334,6.658c0.019,19.259-22.094,6.284-34.04,9.24
				c-7.872,1.948-10.903,4.382-10.952,12.179c-0.05,7.969,2.896,11.721,11.194,11.637c10.283-0.104,20.57,0.146,30.853,0.041
				c6.908-0.07,10.571,3.049,10.225,9.679c-0.343,6.575-6,5.574-10.341,5.838c-4.657,0.284-9.346,0.058-14.021,0.085
				C1042.414,541.736,1042.414,541.738,1042.414,496.869z"/>
			<path style="fill:#060606;" d="M1532.858,495.522c0-46.473,13.326-56.632,59.917-46.183c4.994,1.12,8.878,2.141,9.477,7.63
				c0.925,8.468-5.408,7.918-10.951,7.996c-9.352,0.13-18.709,0.129-28.062,0.029c-6.885-0.074-12.87-0.122-12.528,9.538
				c0.28,7.891,2.846,11.746,11.418,11.332c7.465-0.36,14.974-0.296,22.443,0.029c6.08,0.264,14.552-1.693,13.819,8.355
				c-0.65,8.911-8.213,8.147-14.783,8.115c-4.677-0.023-9.374-0.263-14.027,0.058c-8.382,0.577-19.116-3.882-19.041,11.785
				c0.076,15.794,11.241,9.911,19.213,11.821c11.467,2.747,32.652-8.037,32.611,8.097c-0.038,14.871-21.245,6.438-32.564,6.844
				C1532.89,542.287,1532.858,541.461,1532.858,495.522z"/>
			<path style="fill:#0D0D0D;" d="M1224.578,496.827c-0.003-5.427,0.865-11.011-0.148-16.254
				c-5.24-27.118,7.142-34.336,33.49-31.775c20.466,1.989,37.983,4.761,39.137,28.772c1.096,22.822-15.406,30.351-34.622,29.749
				c-17.328-0.542-17.559,7.974-16.851,19.739c0.444,7.372,0.845,14.614-10.701,14.541c-11.899-0.076-10.191-7.903-10.272-14.925
				C1224.496,516.727,1224.581,506.776,1224.578,496.827z"/>
			<path style="fill:#080808;" d="M261.834,525.823c16.003,0,26.919,0.061,37.833-0.022c6.97-0.053,13.994,0.273,13.354,9.449
				c-0.572,8.202-7.854,6.025-12.879,6.122c-15.014,0.29-30.051,0.448-45.052-0.06c-5.847-0.198-13.902,3.665-17.05-4.249
				c-2.921-7.344,0.372-13.993,5.632-19.934c7.317-8.264,14.144-16.936,21.164-25.446c6.212-7.53,12.4-15.079,21.928-26.67
				c-14.945,0-24.786,0.018-34.626-0.008c-4.985-0.013-9.269-0.878-9.14-7.145c0.111-5.398,2.663-8.367,8.418-8.373
				c16.896-0.017,34.108-1.99,50.602,0.499c16.866,2.545,9.728,13.743,3.686,21.58C292.499,488.694,278.535,505.27,261.834,525.823z
				"/>
			<path style="fill:#060606;" d="M507.998,538.673c9.775-25.041,19.409-50.318,29.576-75.393
				c2.924-7.211,5.32-15.026,17.063-14.194c10.157,0.72,11.841,7.681,14.454,13.99c10.364,25.021,20.266,50.222,30.395,75.496
				c-24.841,14.633-24.122-20.884-47.143-20.533C530.073,518.379,532.727,554.042,507.998,538.673z"/>
			<path style="fill:#040404;" d="M400.84,489.381c-0.006,45.933-11.188,58.186-47.652,52.664
				c-14.694-2.225-24.666-9.592-25.626-24.207c-1.245-18.949-0.877-38.005-0.936-57.015c-0.017-5.363,0.289-10.895,8.302-11.33
				c10.385-0.564,9.377,6.548,9.472,12.748c0.18,11.773-0.106,23.553,0.119,35.324c0.263,13.745-0.475,29.895,19.755,29.223
				c19.96-0.663,18.142-17.113,18.543-30.609c0.268-9.05-0.656-18.184,0.282-27.15c0.729-6.973-5.15-18.309,8.208-19.174
				c14.576-0.944,8.416,11.023,9.321,17.814C401.577,474.796,400.84,482.135,400.84,489.381z"/>
			<path style="fill:#131313;" d="M996.004,449.209c6.531,0,13.075-0.257,19.587,0.075c6.068,0.309,14.119-1.993,15.448,7.152
				c1.542,10.617-7.45,9.089-13.107,8.455c-13.642-1.528-15.17,5.373-14.758,15.993c0.631,16.243,0.021,32.528,0.206,48.793
				c0.083,7.265-1.543,11.98-10.624,11.994c-9.03,0.014-10.853-4.576-10.718-11.91c0.216-11.744,0.648-23.532-0.12-35.233
				c-0.866-13.2,8.351-33.302-19.893-29.951c-4.163,0.494-6.471-3.097-5.984-7.184c0.604-5.07,3.697-8.036,9.18-8.063
				c10.261-0.051,20.522-0.015,30.783-0.015C996.004,449.28,996.004,449.244,996.004,449.209z"/>
			<path style="fill:#FBBB09;" d="M119.699,508.934c-3.19,14.584,0.963,22.135,18.288,20.944
				c10.211-0.702,21.467-2.855,36.382,5.883c-25.262,6.388-45.289,8.049-65.151,0.359c-4.133-1.6-4.6-80.836-0.357-82.797
				c19.896-9.194,40.299-4.941,65.64-1.579c-13.518,12.571-26.073,8.833-36.655,8.275c-17.406-0.918-21.491,6.34-17.915,20.982
				C126.739,490.365,126.701,499.677,119.699,508.934z"/>
			<path d="M610.286,494.886c-0.003-11.775-0.043-23.551,0.014-35.326c0.03-6.201,2.38-10.171,9.747-10.045
				c7.255,0.124,9.805,4.132,9.823,10.276c0.073,24.456,0.072,48.912-0.053,73.367c-0.037,7.32-5.295,8.441-11.411,8.304
				c-5.823-0.131-8.137-3.217-8.125-8.533C610.307,520.248,610.289,507.567,610.286,494.886z"/>
			<path style="fill:#FBBE15;" d="M79.121,460.253c7.951-0.066,9.896-17.546,19.394-8.203c6.346,6.243-4.165,12.317-7.848,17.811
				c-12.48,18.618-25.71,36.764-40.938,58.325c17.771,0.983,31.567,1.747,45.363,2.51c-0.099,2.373-0.199,4.746-0.298,7.12
				c-20.492,4.067-41.058,6.326-62.032-1.461c-2.973-26.049,22.399-39.248,29.309-60.827
				C65.885,468.484,70.075,461.81,79.121,460.253z"/>
			<path style="fill:#FBBC0D;" d="M79.121,460.253c-3.558,4.473-7.117,8.946-10.675,13.419
				c-12.906,18.736-24.586,38.303-39.971,55.36c-5.598,2.285-7.894,13.503-14.897,8.723c-6.914-4.719,0.074-11.244,3.593-16.274
				c13.409-19.163,26.933-38.25,40.982-58.172c-14.984-8.051-31.19,1.473-44.522-8.408
				C42.291,443.644,69.107,446.175,79.121,460.253z"/>
			<path style="fill:#040404;" d="M1426.764,495.733c0.008,11.733-0.023,23.465,0.021,35.198c0.022,5.792-0.695,10.658-8.616,10.673
				c-6.782,0.013-10.324-2.425-10.29-9.362c0.12-24.367-0.034-48.735,0.176-73.101c0.052-6.098,2.858-10.009,10.255-9.702
				c8.022,0.332,8.329,5.645,8.4,11.097C1426.861,472.266,1426.756,484,1426.764,495.733z"/>
			<path style="fill:#FEEBBA;" d="M119.699,508.934c0.077-9.311,0.154-18.622,0.232-27.933c1.961,0.42,3.922,0.84,5.884,1.26
				c10.871,9.528,26.812-0.305,37.673,9.257c1.453,10.108-0.039,17.929-13.442,17.544
				C139.938,508.771,129.815,508.959,119.699,508.934z"/>
			<path style="fill:#FDE8AE;" d="M28.475,529.032c9.905-20.766,22.769-39.526,39.972-55.353
				c-3.853,25.182-29.082,38.954-35.683,62.676C31.333,533.914,29.904,531.473,28.475,529.032z"/>
			<path style="fill:#FBBA04;" d="M163.488,491.517c-12.51-3.268-29.549,10.754-37.674-9.257
				C137.917,487.083,155.475,471.077,163.488,491.517z"/>
			<path style="fill:#F8F8F8;" d="M459.288,525.905c-9.391-0.469-19.638,3.228-19.366-12.082
				c0.229-12.862,7.96-12.005,16.332-11.413c9.469,0.669,22.784-3.042,22.942,12.11C479.338,528.051,467.153,524.98,459.288,525.905
				z"/>
			<path style="fill:#F8F8F8;" d="M455.413,486.769c-6.986-0.362-14.883,2.322-15.424-9.619
				c-0.564-12.458,6.408-12.715,15.577-12.23c8.193,0.433,19.025-1.601,19.781,9.464
				C476.232,487.343,464.751,486.566,455.413,486.769z"/>
			<path style="fill:#FAFAFA;" d="M1166.859,465.024c9.835,0.113,20.486,0.826,19.113,13.664
				c-1.254,11.72-12.352,8.369-20.231,8.841c-8.626,0.517-16.62,1.243-16.294-11.822
				C1149.791,461.925,1159.201,465.648,1166.859,465.024z"/>
			<path style="fill:#F1F1F1;" d="M685.488,487.859c-8.663-0.729-19.562,3.01-19.137-12.341c0.311-11.232,7.236-10.909,14.963-10.61
				c10.001,0.387,22.941-1.87,23.262,12.643C704.839,489.396,693.553,487.18,685.488,487.859z"/>
			<path style="fill:#F1F1F1;" d="M1352.058,487.928c-10.381-0.645-21.063,2.662-20.521-12.63
				c0.407-11.475,7.695-10.655,15.213-10.36c9.931,0.39,23.036-2.118,23.086,12.743
				C1369.877,489.639,1358.378,486.811,1352.058,487.928z"/>
			<path style="fill:#EFEFEF;" d="M1277.024,478.366c-1.763,9.555-8.249,12.439-17.607,13.182
				c-11.172,0.888-14.38-3.753-14.156-13.76c0.181-8.096,0.842-13.956,11.669-12.958
				C1266.537,465.716,1275.588,466.453,1277.024,478.366z"/>
			<path style="fill:#C6C6C6;" d="M557.011,475.236c-1.304,12.639,14.998,20.698,2.027,30.92c-2.918,2.3-14.847-0.119-15.131-1.66
				C541.967,493.942,544.697,484.205,557.011,475.236z"/>
		</g>
	</g>
</g>
</svg>
