<?xml version="1.0" encoding="iso-8859-1"?>
<!-- Generator: Adobe Illustrator 26.0.0, SVG Export Plug-In . SVG Version: 6.00 Build 0)  -->
<svg version="1.1" id="Layer_1" xmlns="http://www.w3.org/2000/svg" xmlns:xlink="http://www.w3.org/1999/xlink" x="0px" y="0px"
	 viewBox="0 0 699.889 299.151" style="enable-background:new 0 0 699.889 299.151;" xml:space="preserve">
<g>
	<path style="fill:#FFFFFF;" d="M96.9,298.351c-13.603,0-25.153-4.753-34.65-14.25c-9.501-9.501-14.452-21.253-14.85-35.25v-0.3
		c0-9.398,1.997-17.297,6-23.7c3.999-6.398,8.597-11.648,13.8-15.75c5.198-4.097,11.798-8.048,19.8-11.85
		c-5.602,7.2-9.853,14.25-12.75,21.15c-2.901,6.899-4.35,15.149-4.35,24.75l0.3,5.699c0.797,7.801,3.698,14.349,8.7,19.65
		c4.997,5.297,11.199,7.95,18.6,7.95c7.599,0,14.1-2.7,19.5-8.101c5.401-5.399,8.1-11.901,8.1-19.5v-211.5l21.301-15H107.4
		c-23.602,0-42.9,3.703-57.9,11.1c-15,7.402-23.4,20.1-25.2,38.1l-0.3,4.8c0,12.202,3.347,22.702,10.05,31.5
		c6.699,8.803,15.047,16.2,25.05,22.2c-9.802-0.6-19.153-3.15-28.05-7.65c-8.901-4.5-16.303-11.048-22.2-19.65
		C2.948,94.154,0,83.551,0,70.951c0-13.598,3.797-25.749,11.4-36.45c7.599-10.697,19.298-19.148,35.1-25.35
		c15.797-6.197,36-9.3,60.6-9.3h155.1l-15,22.5h-99.299v171l-0.301,54.301c0,13.996-4.902,25.949-14.699,35.85
		C123.098,293.402,111.099,298.351,96.9,298.351z M81.9,157.351l-12.6-12.9l12.6-12.6l12.9,12.6L81.9,157.351z"/>
	<path style="fill:#3D3C3B;" d="M264.896,241.051h-7.5c-4.8,0-8.953-1.448-12.45-4.35c-3.501-2.897-5.652-6.647-6.449-11.25
		c-1.004,4.603-3.403,8.353-7.2,11.25c-3.802,2.901-8.002,4.35-12.601,4.35h-6.3c-6.403,0-11.803-2.198-16.2-6.6
		c-4.401-4.397-6.6-9.698-6.6-15.9v-12c0-6.6,1.5-12.698,4.5-18.3c3-5.597,7.599-10.097,13.8-13.5c9-4.599,18.249-9.647,27.75-15.15
		c9.497-5.498,17.747-12.848,24.75-22.05v75c0,3.601,2.198,5.804,6.601,6.601h9.6c3.797,0,6.099-2.199,6.9-6.601h1.5v8.101
		c0,5.602-1.903,10.401-5.7,14.399C275.495,239.054,270.695,241.051,264.896,241.051z M245.396,131.851l-14.399-14.7l-14.7,14.7
		c-5.002-4.997-9.9-9.9-14.7-14.7l14.7-14.7l14.7,14.4l14.399-14.4l14.7,14.7L245.396,131.851z M230.997,219.152
		c3.6,0,5.798-2.199,6.6-6.601v-47.4l-11.7,6.9c-9.201,5.203-13.8,12.703-13.8,22.5v17.7c0,3.802,2.297,6.104,6.9,6.9h12V219.152z"
		/>
	<path style="fill:#3D3C3B;" d="M358.196,241.051h-4.2c-6.201,0-11.55-2.198-16.05-6.6c-4.5-4.397-6.75-9.698-6.75-15.9v-5.7
		c-0.403-4.598-2.602-8.446-6.6-11.55c-4.004-3.099-10.2-6.149-18.601-9.149h-0.3v48.899c-6.403-0.398-11.752-2.85-16.05-7.35
		c-4.304-4.5-6.45-9.849-6.45-16.05v-116.7l22.8-15.6l-0.3,101.101h0.3c8.4-3.398,14.7-6.549,18.9-9.45
		c4.2-2.897,6.3-6.347,6.3-10.35v-13.5l22.8-15.6v22.5c0,4.401-1.552,8.602-4.649,12.6c-3.104,4.003-7.754,7.102-13.95,9.3
		l-25.2,7.5c20.198,5.203,33,10.003,38.4,14.399c3,3.202,4.898,6.802,5.699,10.801c1.2,3,3.301,4.5,6.301,4.5h9.6
		c3.998,0,6.3-2.199,6.9-6.601h1.5v8.101c0,5.602-1.903,10.401-5.7,14.399C369.094,239.054,364.196,241.051,358.196,241.051z"/>
	<path style="fill:#3D3C3B;" d="M451.794,241.051h-5.7c-6-0.196-11.053-2.297-15.149-6.3c-4.102-3.998-6.15-8.896-6.15-14.7v-33.3
		c0-6.398-1.65-12-4.95-16.8c-3.3-4.8-6.899-8.897-10.8-12.3c-3.9-3.398-7.05-6.398-9.45-9l-0.3,92.4
		c-6.201,0-11.503-2.198-15.9-6.6c-4.401-4.397-6.6-9.698-6.6-15.9v-117.6l22.8-15.6v52.2c2.4,5.803,12.197,15.6,29.4,29.4
		c5.798,4.2,10.35,8.902,13.649,14.1c3.301,5.203,4.95,11.101,4.95,17.7v13.8c0.797,4.401,3,6.601,6.601,6.601h9.6
		c3.797,0,6.099-2.199,6.9-6.601h1.5v8.101c0,5.602-1.903,10.401-5.7,14.399C462.693,239.054,457.794,241.051,451.794,241.051z"/>
	<path style="fill:#3D3C3B;" d="M497.393,241.051h-5.7c-6-0.196-11.053-2.297-15.149-6.3c-4.102-3.998-6.15-8.896-6.15-14.7v-119.1
		l22.5-15.6v127.2c0.998,4.401,3.3,6.601,6.9,6.601h9.6c3.797,0,6-2.199,6.6-6.601h1.801v8.101c0,5.602-1.903,10.401-5.7,14.399
		C508.292,239.054,503.393,241.051,497.393,241.051z"/>
	<path style="fill:#3D3C3B;" d="M585.891,241.051H538.79c-6.403,0-11.803-2.198-16.2-6.6c-4.401-4.397-6.6-9.698-6.6-15.9v-33.3
		c0-13.2,4.65-24.45,13.95-33.75s20.55-13.95,33.75-13.95h17.7v36.6c-0.202,6.403-2.504,11.803-6.9,16.2
		c-4.401,4.402-9.703,6.601-15.9,6.601h-20.1v15.3c0,3.802,2.297,6.104,6.9,6.9h52.5c3.6,0,5.798-2.199,6.6-6.601h1.8v8.4
		c0,5.399-1.903,10.102-5.7,14.1C596.79,239.054,591.891,241.051,585.891,241.051z M566.691,131.851l-14.4-14.7l-14.7,14.7
		l-14.699-14.7l14.699-14.7l14.7,14.4l14.4-14.4c4.997,4.8,9.899,9.703,14.7,14.7L566.691,131.851z M541.791,190.652
		c4.8,0,8.799-1.65,12-4.95c3.197-3.3,4.8-7.247,4.8-11.851v-13.8c-5.803,1.401-10.603,4.35-14.399,8.85
		c-3.802,4.5-5.7,9.853-5.7,16.05v5.7L541.791,190.652L541.791,190.652z"/>
	<path style="fill:#3D3C3B;" d="M652.491,293.251v-64.8c-1.604,3.802-4.153,6.853-7.65,9.149c-3.501,2.302-7.251,3.45-11.25,3.45
		h-6.3c-6.403,0-11.803-2.198-16.2-6.6c-4.401-4.397-6.6-9.797-6.6-16.2v-12c0-6.398,1.5-12.398,4.5-18
		c3-5.597,7.599-10.097,13.8-13.5c9-4.599,18.249-9.647,27.75-15.15c9.497-5.498,17.747-12.848,24.75-22.05v75
		c0,3.601,2.198,5.804,6.601,6.601h9.6c3.797,0,6.099-2.199,6.9-6.601h1.5v8.101c0,5.602-1.903,10.401-5.7,14.399
		c-3.802,4.003-8.602,6-14.4,6h-4.5v36.601L652.491,293.251z M660.59,131.851l-14.699-14.7l-14.4,14.7l-14.7-14.7l14.7-14.7
		l14.4,14.4l14.699-14.4l14.7,14.7L660.59,131.851z M645.891,219.152c3.6,0,5.798-2.199,6.6-6.601v-47.4l-11.7,6.9
		c-9.201,5.203-13.8,12.703-13.8,22.5v17.7c0,3.802,2.297,6.104,6.9,6.9h12V219.152z"/>
</g>
<g style="display:none;">
	<path style="display:inline;fill:#E89E0A;" d="M1994.755-762.216c-2.61,0.21-2.94,67.53-121.82,132.24
		c-11.03-42.04-22.09-84.08-33.06-126.13c-2.61-9.98,1.53-16.73,11.61-19.36c33.61-8.8,67.21-17.61,100.84-26.35
		c21.09-5.48,40.62,8.44,42.35,30.14C1994.915-768.536,1994.735-765.367,1994.755-762.216z"/>
	<path style="display:inline;fill:#FCBA03;" d="M1994.752-762.213c3.588,15.162,3.584,30.6,3.258,46.02
		c-0.964,45.544-14.554,87.734-34.582,128.139c-14.87,30-33.971,57.031-57.735,80.648c-33.19,32.985-72.388,56.377-116.287,72.118
		c-14.302,5.128-14.531,5.321-26.673-4.048c-63.611-49.089-105.497-112.353-122.532-191.166
		c-7.966-36.853-7.627-74.163-1.555-111.379c1.094-6.702,2.094-13.44,3.649-20.041c2.278-9.667,6.778-12.36,16.431-9.758
		c17.438,4.7,34.788,9.727,52.191,14.562c22.831,6.343,45.729,12.429,68.804,17.829c14.831,3.47,17.274,7.762,13.172,22.69
		c-11.154,40.596-21.385,81.432-31.658,122.256c-0.508,2.02-2.811,5.436,2.589,3.927c30.971-8.655,61.955-17.267,91.431-30.4
		C1991.785-688.167,1992.025-761.994,1994.752-762.213z"/>
	<path style="display:inline;fill:#FCBA03;" d="M1744.126-793.965l-62.148-18.752c-9.804-2.958-15.354-13.304-12.396-23.108
		l18.752-62.148c2.958-9.804,13.304-15.354,23.108-12.396l62.148,18.752c9.804,2.958,15.354,13.304,12.396,23.108l-18.752,62.148
		C1764.277-796.556,1753.931-791.007,1744.126-793.965z"/>
	<path style="display:inline;fill:#FCBA03;" d="M1937.08-818.291l-61.909,19.526c-9.766,3.08-20.181-2.34-23.261-12.106
		l-19.526-61.909c-3.08-9.767,2.34-20.181,12.106-23.261l61.909-19.526c9.766-3.08,20.181,2.34,23.261,12.106l19.526,61.909
		C1952.266-831.786,1946.846-821.372,1937.08-818.291z"/>
	
		<text transform="matrix(1 0 0 1 2047 -534.9485)" style="display:inline;fill:#3D3C3B; font-family:'Not-the-middle-east'; font-size:400px;">Takhleq</text>
</g>
</svg>
